<svg fill="none" height="28" viewBox="0 0 24 28" width="24" xmlns="http://www.w3.org/2000/svg" xmlns:xlink="http://www.w3.org/1999/xlink"><linearGradient id="a" gradientUnits="userSpaceOnUse" x1="24" x2="-.867973" y1=".0083" y2="27.0764"><stop offset="0" stop-color="#792ee5"/><stop offset="1" stop-color="#428ff4"/></linearGradient><clipPath id="b"><path d="m0 0h24v27.871h-24z"/></clipPath><clipPath id="c"><path d="m6.46155 8.36133h11.0769v11.1484h-11.0769z"/></clipPath><g clip-path="url(#b)"><path d="m11.5102.164972-11.020409 6.431758c-.163265.08246-.244898.24738-.4081632.4123-.0664849.1558-.0944996.32559-.08163292.49475v12.86352c.01690892.1752.07271542.3443.16326612.4948.092378.1754.234503.3189.408163.4122l10.938776 6.4318c.1413.1071.3132.1649.4898.1649s.3485-.0578.4898-.1649l10.9388-6.4318c.1736-.0933.3157-.2368.4081-.4122.0906-.1505.1464-.3196.1633-.4948v-12.85528c-.0169-.17521-.0727-.34433-.1633-.49475-.0924-.17542-.2345-.31898-.4081-.41229l-10.9388-6.431762c-.1489-.0914662-.3163-.1478372-.4898-.16491722-.1728.01455942-.3402.06809842-.4898.15667122z" fill="url(#a)"/><g clip-path="url(#c)"><path d="m13.91 16.1571c-.0013 0-.0022-.0014-.0016-.0026.1678-.3453.3553-.6812.5564-1.0365.1639-.2894.3225-.5734.4825-.8759.0319-.0605.0826-.1087.1443-.1373s.131-.0361.1973-.0213c.6338.1422 1.2801.2204 1.9293.2332.0414.0009.0825-.0065.121-.0218s.0735-.0382.1031-.0673.0532-.0638.0693-.1022c.0161-.0383.0244-.0795.0245-.1212v-.9687c-.0002-.0819-.0323-.1605-.0894-.2189-.0572-.0584-.1348-.0918-.2162-.0932-.3951-.0095-.789-.0467-1.179-.1113-.0438-.0075-.0855-.0244-.1222-.0495-.0368-.0251-.0678-.0578-.091-.096-.0231-.0381-.0379-.0808-.0433-.1252s-.0013-.0894.0121-.1321c.3526-1.1453.5366-2.33641.5461-3.5354.0001-.04116-.0078-.08193-.0234-.11999s-.0385-.07265-.0673-.10178c-.0289-.02914-.0632-.05224-.101-.06799s-.0783-.02384-.1192-.02379h-.9629c-.0817.00028-.16.03306-.2178.09119s-.0905.13691-.0909.21916c-.0092 1.0118-.1608 2.0172-.4503 2.9862-.0132.0442-.0359.085-.0666.1193-.0307.0344-.0686.0614-.1109.0793-.0423.0178-.088.026-.1339.0239-.0458-.002-.0906-.0143-.1312-.0359-.2314-.123-.4627-.2545-.7029-.391-.2875-.165-.5701-.3246-.8703-.4853-.0601-.0321-.108-.0832-.1365-.1453-.0284-.0622-.0358-.132-.0211-.1988.1413-.63775.219-1.2881.2317-1.94138.0009-.04162-.0065-.08299-.0217-.12171-.0152-.03871-.038-.07399-.0669-.10377s-.0634-.05347-.1015-.06969-.079-.02464-.1203-.02478h-.9626c-.0814.00027-.1595.03266-.2175.09022-.0579.05755-.0912.13569-.0926.21764-.0096.39753-.0465.79391-.1105 1.1863-.0075.04407-.0243.08602-.0492.12303-.025.03704-.0575.06824-.0954.09154s-.0803.0381-.1244.0436c-.0441.0054-.0889.0013-.1312-.0122-1.13808-.35428-2.32157-.53885-3.51279-.54779-.04087-.00019-.08138.00776-.1192.02338-.03781.01563-.07218.03862-.10113.06766s-.05192.06356-.06757.10156-.02369.07874-.02364.11988v.96941c.00028.0823.03285.1611.0906.2193.05776.0582.13603.0911.21776.0914 1.00531.0092 2.00425.1616 2.96703.4529.04396.0133.08445.0362.11858.0671.03412.0308.06103.0689.07879.1115s.02594.0886.02394.1348c-.002.0461-.01413.0912-.03551.1321-.12222.2328-.25291.4657-.38854.7078-.1639.2893-.32249.5734-.48215.8756-.03187.0604-.08258.1087-.14435.1373-.06177.0287-.13118.0361-.19756.0212-.63366-.1421-1.27985-.2201-1.92893-.2328-.04133-.0009-.08243.0065-.1209.0217-.03846.0153-.07351.0381-.10311.0672s-.05314.0638-.06926.1021-.02449.0795-.02462.1211v.9687c.00035.082.03255.1606.08971.219s.13475.0919.21617.0935c.395.0093.78886.0465 1.17869.1113.04378.0075.08546.0243.12223.0493.03677.0251.06778.0578.09094.0959.02316.0382.03793.0808.04332.1252.0054.0444.00128.0894-.01206.132-.35228 1.1453-.5359 2.3365-.54501 3.5354-.00014.0412.0078.0819.02336.12s.03844.0727.06732.1018.0632.0522.10098.068c.03778.0157.07828.0238.11917.0238h.96287c.0817-.0002.16-.0329.21784-.091.05783-.0581.0905-.1368.09087-.219.0092-1.0118.16082-2.0172.45036-2.9862.01322-.0442.036-.0849.06669-.1192.03068-.0343.06853-.0614.11082-.0793.04229-.0178.08798-.0261.13381-.0241.04578.002.09068.0141.13128.0356.2313.1234.4627.2545.7029.391.2875.165.5701.3246.8703.4857.0601.032.108.0829.1365.1451.0284.0621.0358.1319.021.1986-.1412.6379-.2187 1.2884-.2313 1.9417-.0009.0417.0065.083.0216.1217.0152.0387.0379.074.0668.1038.0288.0298.0633.0535.1014.0697s.079.0247.1203.0248h.9625c.0814-.0003.1595-.0326.2175-.0901.0581-.0574.0914-.1355.093-.2174.0093-.3977.0462-.7942.1106-1.1867.0074-.044.0241-.086.049-.123s.0574-.0681.0953-.0914.0803-.0381.1244-.0435.0888-.0012.1311.0123c1.1381.354 2.3216.5385 3.5128.5475.0408.0001.0814-.0078.1192-.0234s.0721-.0386.1011-.0677c.029-.029.0519-.0635.0676-.1015.0156-.038.0237-.0788.0236-.1199v-.9695c-.0002-.0823-.0327-.1611-.0905-.2193-.0578-.0583-.1361-.0911-.2179-.0914-1.1295-.0104-2.2502-.2018-3.3199-.5669-.0002-.0001-.0004-.0001-.0006-.0001zm-.8192-1.8237c-.0004 0-.0008.0002-.001.0006-.1677.297-.3322.5905-.4878.8942-.019.0369-.0452.0695-.0769.0961s-.0684.0465-.1079.0586-.0809.0162-.122.012c-.0411-.0043-.0809-.0167-.1171-.0366-.1932-.1066-.3829-.2133-.5708-.3221-.2953-.1688-.5867-.3345-.889-.4913-.0367-.0191-.0691-.0454-.0955-.0773-.0264-.032-.0462-.0689-.0583-.1086-.012-.0397-.016-.0815-.0118-.1228s.0165-.0814.0363-.1179c.106-.1944.2119-.3853.32-.5744.1681-.2969.3327-.5905.4885-.8948.019-.0369.0451-.0696.0768-.0962s.0684-.0466.1079-.0587.081-.0162.1221-.0119c.041.0042.0809.0167.1171.0367.1932.1066.3829.2133.5708.322.2949.1689.5863.3346.8883.4913.0366.0192.0691.0455.0955.0774.0264.032.0462.0689.0582.1086.012.0398.016.0815.0117.1228-.0042.0414-.0166.0814-.0365.1178-.1026.1929-.2113.3832-.3175.5739-.0002.0004-.0006.0006-.0011.0006z" fill="#fff"/></g></g></svg>
